<?xml version="1.0" encoding="UTF-8" standalone="no"?><!DOCTYPE svg PUBLIC "-//W3C//DTD SVG 1.1//EN" "http://www.w3.org/Graphics/SVG/1.1/DTD/svg11.dtd"><!-- Generated by graphviz version 2.40.1 (20161225.0304)
 --><!-- Title: eflambe Pages: 1 --><svg xmlns="http://www.w3.org/2000/svg" xmlns:xlink="http://www.w3.org/1999/xlink" width="377pt" height="549pt" viewBox="0.00 0.00 376.60 549.00">
<g id="graph0" class="graph" transform="scale(1 1) rotate(0) translate(4 545)">
<title>eflambe</title>
<polygon fill="#ffffff" stroke="transparent" points="-4,4 -4,-545 372.604,-545 372.604,4 -4,4"/>
<text text-anchor="start" x="8" y="-9.2" font-family="Times,serif" font-weight="bold" font-size="14.00" fill="#000000">Dashed lines are calls, solid are spawns, dotted are implements</text>
<g id="clust1" class="cluster">
<title>cluster_public_api</title>
<polygon fill="#d3d3d3" stroke="#d3d3d3" points="51.302,-401.2 51.302,-478 129.302,-478 129.302,-401.2 51.302,-401.2"/>
<text text-anchor="start" x="59.3879" y="-462.4" font-family="Times,serif" font-weight="bold" font-size="14.00" fill="#000000">Public API</text>
</g>
<g id="clust2" class="cluster">
<title>cluster_function_trace</title>
<polygon fill="none" stroke="#000000" points="43.302,-105.6 43.302,-293.4 325.302,-293.4 325.302,-105.6 43.302,-105.6"/>
<text text-anchor="middle" x="184.302" y="-276.8" font-family="Times,serif" font-size="14.00" fill="#000000">Per Function Trace</text>
</g>
<!-- eflambe -->
<g id="node1" class="node">
<title>eflambe</title>
<polygon fill="none" stroke="#000000" points="120.8877,-445.2 59.7163,-445.2 59.7163,-409.2 120.8877,-409.2 120.8877,-445.2"/>
<text text-anchor="middle" x="90.302" y="-423" font-family="Times,serif" font-size="14.00" fill="#000000">eflambe</text>
</g>
<!-- eflambe_server -->
<g id="node2" class="node">
<title>eflambe_server</title>
<polygon fill="none" stroke="#000000" points="161.583,-372.2 59.021,-372.2 59.021,-336.2 161.583,-336.2 161.583,-372.2"/>
<text text-anchor="middle" x="110.302" y="-350" font-family="Times,serif" font-size="14.00" fill="#000000">eflambe_server</text>
</g>
<!-- eflambe&#45;&gt;eflambe_server -->
<g id="edge1" class="edge">
<title>eflambe-&gt;eflambe_server</title>
<path fill="none" stroke="#000000" stroke-dasharray="5,2" d="M95.2458,-409.1551C97.4814,-400.9951 100.1746,-391.1652 102.6613,-382.0887"/>
<polygon fill="#000000" stroke="#000000" points="106.0789,-382.8598 105.3457,-372.2904 99.3277,-381.0101 106.0789,-382.8598"/>
</g>
<!-- eflambe_tracer -->
<g id="node6" class="node">
<title>eflambe_tracer</title>
<polygon fill="none" stroke="#000000" points="160.2432,-260.6 60.3608,-260.6 60.3608,-224.6 160.2432,-224.6 160.2432,-260.6"/>
<text text-anchor="middle" x="110.302" y="-238.4" font-family="Times,serif" font-size="14.00" fill="#000000">eflambe_tracer</text>
</g>
<!-- eflambe_server&#45;&gt;eflambe_tracer -->
<g id="edge8" class="edge">
<title>eflambe_server-&gt;eflambe_tracer</title>
<path fill="none" stroke="#000000" d="M110.302,-335.7715C110.302,-318.139 110.302,-291.2924 110.302,-270.9391"/>
<polygon fill="#000000" stroke="#000000" points="113.8021,-270.6855 110.302,-260.6856 106.8021,-270.6856 113.8021,-270.6855"/>
<text text-anchor="middle" x="136.7431" y="-305.6" font-family="Times,serif" font-size="14.00" fill="#000000">start_link</text>
</g>
<!-- eflambe_app -->
<g id="node3" class="node">
<title>eflambe_app</title>
<polygon fill="none" stroke="#000000" points="182.302,-541 96.0283,-523 182.302,-505 268.5757,-523 182.302,-541"/>
<polyline fill="none" stroke="#000000" points="107.7754,-525.4509 107.7754,-520.5491 "/>
<polyline fill="none" stroke="#000000" points="170.555,-507.4509 194.049,-507.4509 "/>
<polyline fill="none" stroke="#000000" points="256.8286,-520.5491 256.8286,-525.4509 "/>
<polyline fill="none" stroke="#000000" points="194.049,-538.5491 170.555,-538.5491 "/>
<text text-anchor="middle" x="182.302" y="-518.8" font-family="Times,serif" font-size="14.00" fill="#000000">eflambe_app</text>
</g>
<!-- eflambe_sup -->
<g id="node4" class="node">
<title>eflambe_sup</title>
<polygon fill="none" stroke="#000000" points="225.8335,-445.2 138.7705,-445.2 138.7705,-409.2 225.8335,-409.2 225.8335,-445.2"/>
<text text-anchor="middle" x="182.302" y="-423" font-family="Times,serif" font-size="14.00" fill="#000000">eflambe_sup</text>
</g>
<!-- eflambe_app&#45;&gt;eflambe_sup -->
<g id="edge2" class="edge">
<title>eflambe_app-&gt;eflambe_sup</title>
<path fill="none" stroke="#000000" d="M182.302,-504.9808C182.302,-491.1527 182.302,-471.793 182.302,-455.8477"/>
<polygon fill="#000000" stroke="#000000" points="185.8021,-455.4641 182.302,-445.4642 178.8021,-455.4642 185.8021,-455.4641"/>
</g>
<!-- eflambe_sup&#45;&gt;eflambe_server -->
<g id="edge3" class="edge">
<title>eflambe_sup-&gt;eflambe_server</title>
<path fill="none" stroke="#000000" d="M164.5042,-409.1551C155.6772,-400.2054 144.8689,-389.247 135.2327,-379.4769"/>
<polygon fill="#000000" stroke="#000000" points="137.6586,-376.9523 128.1445,-372.2904 132.6748,-381.8678 137.6586,-376.9523"/>
</g>
<!-- eflambe_output_formatter -->
<g id="node5" class="node">
<title>eflambe_output_formatter</title>
<ellipse fill="none" stroke="#000000" cx="170.302" cy="-42.8" rx="112.2994" ry="18"/>
<text text-anchor="middle" x="170.302" y="-38.6" font-family="Times,serif" font-size="14.00" fill="#000000">eflambe_output_formatter</text>
</g>
<!-- eflambe_plain -->
<g id="node7" class="node">
<title>eflambe_plain</title>
<polygon fill="none" stroke="#000000" points="147.3834,-149.6 51.2206,-149.6 51.2206,-113.6 147.3834,-113.6 147.3834,-149.6"/>
<text text-anchor="middle" x="99.302" y="-127.4" font-family="Times,serif" font-size="14.00" fill="#000000">eflambe_plain</text>
</g>
<!-- eflambe_tracer&#45;&gt;eflambe_plain -->
<g id="edge4" class="edge">
<title>eflambe_tracer-&gt;eflambe_plain</title>
<path fill="none" stroke="#000000" stroke-dasharray="5,2" d="M108.4856,-224.2706C106.7579,-206.8373 104.1329,-180.3482 102.1312,-160.1489"/>
<polygon fill="#000000" stroke="#000000" points="105.5903,-159.5627 101.1211,-149.9566 98.6244,-160.2531 105.5903,-159.5627"/>
</g>
<!-- eflambe_brendan_gregg -->
<g id="node8" class="node">
<title>eflambe_brendan_gregg</title>
<polygon fill="none" stroke="#000000" points="317.3526,-149.6 165.2514,-149.6 165.2514,-113.6 317.3526,-113.6 317.3526,-149.6"/>
<text text-anchor="middle" x="241.302" y="-127.4" font-family="Times,serif" font-size="14.00" fill="#000000">eflambe_brendan_gregg</text>
</g>
<!-- eflambe_tracer&#45;&gt;eflambe_brendan_gregg -->
<g id="edge5" class="edge">
<title>eflambe_tracer-&gt;eflambe_brendan_gregg</title>
<path fill="none" stroke="#000000" stroke-dasharray="5,2" d="M131.641,-224.5189C153.5271,-205.9741 187.7264,-176.9961 212.1109,-156.3345"/>
<polygon fill="#000000" stroke="#000000" points="214.6053,-158.8084 219.9722,-149.6734 210.0801,-153.4677 214.6053,-158.8084"/>
</g>
<!-- eflambe_plain&#45;&gt;eflambe_output_formatter -->
<g id="edge6" class="edge">
<title>eflambe_plain-&gt;eflambe_output_formatter</title>
<path fill="none" stroke="#000000" stroke-dasharray="1,5" d="M113.0386,-113.3641C120.8318,-103.121 130.8278,-90.1529 139.9752,-78.8 142.6286,-75.5069 145.4485,-72.0741 148.2591,-68.6926"/>
<polygon fill="#000000" stroke="#000000" points="150.9774,-70.8981 154.7179,-60.9855 145.6122,-66.4019 150.9774,-70.8981"/>
<text text-anchor="middle" x="172.9654" y="-83" font-family="Times,serif" font-size="14.00" fill="#000000">implements</text>
</g>
<!-- eflambe_brendan_gregg&#45;&gt;eflambe_output_formatter -->
<g id="edge7" class="edge">
<title>eflambe_brendan_gregg-&gt;eflambe_output_formatter</title>
<path fill="none" stroke="#000000" stroke-dasharray="1,5" d="M230.0394,-113.4491C223.2852,-102.9988 214.2852,-89.7988 205.302,-78.8 202.433,-75.2872 199.2843,-71.7152 196.0883,-68.2532"/>
<polygon fill="#000000" stroke="#000000" points="198.5351,-65.7472 189.1061,-60.9156 193.464,-70.5726 198.5351,-65.7472"/>
<text text-anchor="middle" x="248.9654" y="-83" font-family="Times,serif" font-size="14.00" fill="#000000">implements</text>
</g>
</g>
</svg>