<?xml version="1.0" encoding="UTF-8" standalone="no"?><!DOCTYPE svg PUBLIC "-//W3C//DTD SVG 1.1//EN" "http://www.w3.org/Graphics/SVG/1.1/DTD/svg11.dtd"><!-- Generated by graphviz version 2.40.1 (20161225.0304)
 --><!-- Title: eflambe Pages: 1 --><svg xmlns="http://www.w3.org/2000/svg" xmlns:xlink="http://www.w3.org/1999/xlink" width="287pt" height="635pt" viewBox="0.00 0.00 287.18 635.00">
<g id="graph0" class="graph" transform="scale(1 1) rotate(0) translate(4 631)">
<title>eflambe</title>
<polygon fill="#ffffff" stroke="transparent" points="-4,4 -4,-631 283.1774,-631 283.1774,4 -4,4"/>
<text text-anchor="start" x="125.9828" y="-48.4" font-family="Times,serif" font-weight="bold" font-size="14.00" fill="#000000">Key:</text>
<text text-anchor="start" x="73.5059" y="-34.4" font-family="Times,serif" font-size="14.00" fill="#000000">* Dashed lines are calls</text>
<text text-anchor="start" x="71.9365" y="-20.4" font-family="Times,serif" font-size="14.00" fill="#000000">* Solid lines are spawns</text>
<text text-anchor="start" x="70.5792" y="-6.4" font-family="Times,serif" font-size="14.00" fill="#000000">* Dotted are implements</text>
<g id="clust1" class="cluster">
<title>cluster_public_api</title>
<polygon fill="#d3d3d3" stroke="#d3d3d3" points="19.0407,-542.2 19.0407,-619 97.0407,-619 97.0407,-542.2 19.0407,-542.2"/>
<text text-anchor="start" x="27.1266" y="-603.4" font-family="Times,serif" font-weight="bold" font-size="14.00" fill="#000000">Public API</text>
</g>
<g id="clust2" class="cluster">
<title>cluster_function_trace</title>
<polygon fill="none" stroke="#000000" points="64.0407,-215.8 64.0407,-450.2 203.0407,-450.2 203.0407,-215.8 64.0407,-215.8"/>
<text text-anchor="middle" x="133.5407" y="-433.6" font-family="Times,serif" font-size="14.00" fill="#000000">Per Trace</text>
</g>
<g id="clust3" class="cluster">
<title>cluster_function_process_trace</title>
<polygon fill="none" stroke="#000000" points="72.0407,-223.8 72.0407,-300.6 195.0407,-300.6 195.0407,-223.8 72.0407,-223.8"/>
<text text-anchor="middle" x="133.5407" y="-284" font-family="Times,serif" font-size="14.00" fill="#000000">Per Traced Process</text>
</g>
<!-- eflambe -->
<g id="node1" class="node">
<title>eflambe</title>
<polygon fill="none" stroke="#000000" points="88.6264,-586.2 27.455,-586.2 27.455,-550.2 88.6264,-550.2 88.6264,-586.2"/>
<text text-anchor="middle" x="58.0407" y="-564" font-family="Times,serif" font-size="14.00" fill="#000000">eflambe</text>
</g>
<!-- eflambe_sup -->
<g id="node2" class="node">
<title>eflambe_sup</title>
<polygon fill="none" stroke="#000000" points="180.5722,-513.2 93.5092,-513.2 93.5092,-477.2 180.5722,-477.2 180.5722,-513.2"/>
<text text-anchor="middle" x="137.0407" y="-491" font-family="Times,serif" font-size="14.00" fill="#000000">eflambe_sup</text>
</g>
<!-- eflambe&#45;&gt;eflambe_sup -->
<g id="edge1" class="edge">
<title>eflambe-&gt;eflambe_sup</title>
<path fill="none" stroke="#000000" stroke-dasharray="5,2" d="M77.5688,-550.1551C87.349,-541.1177 99.3459,-530.0319 109.9968,-520.1899"/>
<polygon fill="#000000" stroke="#000000" points="112.4943,-522.6476 117.4635,-513.2904 107.7436,-517.5065 112.4943,-522.6476"/>
</g>
<!-- eflambe_tracer -->
<g id="node3" class="node">
<title>eflambe_tracer</title>
<polygon fill="none" stroke="#000000" points="182.9819,-267.8 83.0995,-267.8 83.0995,-231.8 182.9819,-231.8 182.9819,-267.8"/>
<text text-anchor="middle" x="133.0407" y="-245.6" font-family="Times,serif" font-size="14.00" fill="#000000">eflambe_tracer</text>
</g>
<!-- eflambe&#45;&gt;eflambe_tracer -->
<g id="edge2" class="edge">
<title>eflambe-&gt;eflambe_tracer</title>
<path fill="none" stroke="#000000" d="M58.0407,-549.8997C58.0407,-535.1349 58.0407,-513.8302 58.0407,-495.2 58.0407,-495.2 58.0407,-495.2 58.0407,-336 58.0407,-310.6584 76.7175,-289.143 95.4308,-273.9457"/>
<polygon fill="#000000" stroke="#000000" points="97.5994,-276.6934 103.3987,-267.8267 93.3358,-271.1417 97.5994,-276.6934"/>
</g>
<!-- eflambe_server -->
<g id="node6" class="node">
<title>eflambe_server</title>
<polygon fill="none" stroke="#000000" points="188.3217,-417.4 85.7597,-417.4 85.7597,-381.4 188.3217,-381.4 188.3217,-417.4"/>
<text text-anchor="middle" x="137.0407" y="-395.2" font-family="Times,serif" font-size="14.00" fill="#000000">eflambe_server</text>
</g>
<!-- eflambe_sup&#45;&gt;eflambe_server -->
<g id="edge9" class="edge">
<title>eflambe_sup-&gt;eflambe_server</title>
<path fill="none" stroke="#000000" d="M137.0407,-477.1808C137.0407,-463.3527 137.0407,-443.993 137.0407,-428.0477"/>
<polygon fill="#000000" stroke="#000000" points="140.5408,-427.6641 137.0407,-417.6642 133.5408,-427.6642 140.5408,-427.6641"/>
</g>
<!-- eflambe_plain -->
<g id="node7" class="node">
<title>eflambe_plain</title>
<polygon fill="none" stroke="#000000" points="96.1221,-188.8 -.0407,-188.8 -.0407,-152.8 96.1221,-152.8 96.1221,-188.8"/>
<text text-anchor="middle" x="48.0407" y="-166.6" font-family="Times,serif" font-size="14.00" fill="#000000">eflambe_plain</text>
</g>
<!-- eflambe_tracer&#45;&gt;eflambe_plain -->
<g id="edge5" class="edge">
<title>eflambe_tracer-&gt;eflambe_plain</title>
<path fill="none" stroke="#000000" stroke-dasharray="5,2" d="M113.3263,-231.4772C101.9546,-220.9082 87.4928,-207.4672 75.0721,-195.9233"/>
<polygon fill="#000000" stroke="#000000" points="77.3558,-193.2675 67.6481,-189.0234 72.5903,-198.3949 77.3558,-193.2675"/>
</g>
<!-- eflambe_brendan_gregg -->
<g id="node8" class="node">
<title>eflambe_brendan_gregg</title>
<polygon fill="none" stroke="#000000" points="266.0913,-188.8 113.9901,-188.8 113.9901,-152.8 266.0913,-152.8 266.0913,-188.8"/>
<text text-anchor="middle" x="190.0407" y="-166.6" font-family="Times,serif" font-size="14.00" fill="#000000">eflambe_brendan_gregg</text>
</g>
<!-- eflambe_tracer&#45;&gt;eflambe_brendan_gregg -->
<g id="edge6" class="edge">
<title>eflambe_tracer-&gt;eflambe_brendan_gregg</title>
<path fill="none" stroke="#000000" stroke-dasharray="5,2" d="M146.2609,-231.4772C153.5989,-221.307 162.8556,-208.4775 170.9652,-197.238"/>
<polygon fill="#000000" stroke="#000000" points="173.8793,-199.1808 176.8922,-189.0234 168.2026,-195.085 173.8793,-199.1808"/>
</g>
<!-- eflambe_app -->
<g id="node4" class="node">
<title>eflambe_app</title>
<polygon fill="none" stroke="#000000" points="193.0407,-586.2 106.767,-568.2 193.0407,-550.2 279.3144,-568.2 193.0407,-586.2"/>
<polyline fill="none" stroke="#000000" points="118.5141,-570.6509 118.5141,-565.7491 "/>
<polyline fill="none" stroke="#000000" points="181.2937,-552.6509 204.7877,-552.6509 "/>
<polyline fill="none" stroke="#000000" points="267.5673,-565.7491 267.5673,-570.6509 "/>
<polyline fill="none" stroke="#000000" points="204.7877,-583.7491 181.2937,-583.7491 "/>
<text text-anchor="middle" x="193.0407" y="-564" font-family="Times,serif" font-size="14.00" fill="#000000">eflambe_app</text>
</g>
<!-- eflambe_app&#45;&gt;eflambe_sup -->
<g id="edge3" class="edge">
<title>eflambe_app-&gt;eflambe_sup</title>
<path fill="none" stroke="#000000" d="M180.8895,-552.3601C173.9347,-543.294 165.0347,-531.6922 157.0724,-521.3128"/>
<polygon fill="#000000" stroke="#000000" points="159.8066,-519.1266 150.943,-513.3226 154.2526,-523.3873 159.8066,-519.1266"/>
</g>
<!-- eflambe_output_formatter -->
<g id="node5" class="node">
<title>eflambe_output_formatter</title>
<ellipse fill="none" stroke="#000000" cx="119.0407" cy="-82" rx="112.2994" ry="18"/>
<text text-anchor="middle" x="119.0407" y="-77.8" font-family="Times,serif" font-size="14.00" fill="#000000">eflambe_output_formatter</text>
</g>
<!-- eflambe_server&#45;&gt;eflambe_tracer -->
<g id="edge4" class="edge">
<title>eflambe_server-&gt;eflambe_tracer</title>
<path fill="none" stroke="#000000" d="M136.5582,-381.3547C135.8735,-355.7459 134.6131,-308.6062 133.8016,-278.259"/>
<polygon fill="#000000" stroke="#000000" points="137.291,-277.8121 133.5249,-267.9093 130.2935,-277.9993 137.291,-277.8121"/>
<text text-anchor="middle" x="161.4818" y="-331.8" font-family="Times,serif" font-size="14.00" fill="#000000">start_link</text>
</g>
<!-- eflambe_plain&#45;&gt;eflambe_output_formatter -->
<g id="edge7" class="edge">
<title>eflambe_plain-&gt;eflambe_output_formatter</title>
<path fill="none" stroke="#000000" stroke-dasharray="1,5" d="M61.7773,-152.5641C69.5705,-142.321 79.5665,-129.3529 88.7139,-118 91.3673,-114.7069 94.1872,-111.2741 96.9978,-107.8926"/>
<polygon fill="#000000" stroke="#000000" points="99.7161,-110.0981 103.4566,-100.1855 94.3509,-105.6019 99.7161,-110.0981"/>
<text text-anchor="middle" x="121.7041" y="-122.2" font-family="Times,serif" font-size="14.00" fill="#000000">implements</text>
</g>
<!-- eflambe_brendan_gregg&#45;&gt;eflambe_output_formatter -->
<g id="edge8" class="edge">
<title>eflambe_brendan_gregg-&gt;eflambe_output_formatter</title>
<path fill="none" stroke="#000000" stroke-dasharray="1,5" d="M178.7781,-152.6491C172.0239,-142.1988 163.0239,-128.9988 154.0407,-118 151.1717,-114.4872 148.023,-110.9152 144.827,-107.4532"/>
<polygon fill="#000000" stroke="#000000" points="147.2738,-104.9472 137.8448,-100.1156 142.2027,-109.7726 147.2738,-104.9472"/>
<text text-anchor="middle" x="197.7041" y="-122.2" font-family="Times,serif" font-size="14.00" fill="#000000">implements</text>
</g>
</g>
</svg>